# xmcd CD database file
#
# Track frame offsets:
#	150
#	42697
#	75672
#	107375
#	151122
#	191230
#	243075
#	286100
#
# Disc length: 4300 seconds
#
# Revision: 1
# Processed by: cddbd v1.5.2PL0 Copyright (c) Steve Scherf et al.
# Submitted via: CDex 1.81
#
DISCID=5d10ca08
DTITLE=V.S.O.P. The Quintet - V.S.O.P. The Quintet
DYEAR=1977
DGENRE=Jazz
TTITLE0=One Of A Kind
TTITLE1=Third Plane
TTITLE2=Jessica
TTITLE3=Lawra
TTITLE4=Introduction Of Players - Darts
TTITLE5=Dolores
TTITLE6=Little Waltz
TTITLE7=Byrdlike
EXTD=YEAR: 1977
EXTT0=
EXTT1=
EXTT2=
EXTT3=
EXTT4=
EXTT5=
EXTT6=
EXTT7=
PLAYORDER=
